<svg width="16" height="16" viewBox="0 0 16 16" fill="none" xmlns="http://www.w3.org/2000/svg">
<path d="M5.47036 9.46986L9.47036 5.46987C9.54012 5.4001 9.62294 5.34476 9.71409 5.307C9.80525 5.26925 9.90294 5.24981 10.0016 5.24981C10.1003 5.24981 10.198 5.26925 10.2891 5.307C10.3803 5.34476 10.4631 5.4001 10.5329 5.46987C10.6026 5.53963 10.658 5.62245 10.6957 5.7136C10.7335 5.80476 10.7529 5.90245 10.7529 6.00112C10.7529 6.09978 10.7335 6.19747 10.6957 6.28863C10.658 6.37978 10.6026 6.4626 10.5329 6.53237L6.53286 10.5324C6.39196 10.6733 6.20086 10.7524 6.00161 10.7524C5.80235 10.7524 5.61125 10.6733 5.47036 10.5324C5.32946 10.3915 5.2503 10.2004 5.2503 10.0011C5.2503 9.80186 5.32946 9.61076 5.47036 9.46986ZM13.6579 2.34487C12.9539 1.6425 12.0001 1.24805 11.0057 1.24805C10.0112 1.24805 9.05743 1.6425 8.35348 2.34487L6.47098 4.22549C6.33008 4.36639 6.25093 4.55748 6.25093 4.75674C6.25093 4.8554 6.27036 4.9531 6.30812 5.04425C6.34587 5.1354 6.40122 5.21823 6.47098 5.28799C6.54075 5.35776 6.62357 5.4131 6.71472 5.45085C6.80587 5.48861 6.90357 5.50804 7.00223 5.50804C7.20149 5.50804 7.39258 5.42889 7.53348 5.28799L9.41286 3.40924C9.83488 2.98713 10.4073 2.74996 11.0042 2.7499C11.6011 2.74984 12.1736 2.9869 12.5957 3.40893C13.0178 3.83095 13.2549 4.40338 13.255 5.00027C13.2551 5.59716 13.018 6.16963 12.596 6.59174L10.7141 8.46987C10.6443 8.53963 10.589 8.62245 10.5512 8.7136C10.5135 8.80476 10.4941 8.90245 10.4941 9.00112C10.4941 9.09978 10.5135 9.19747 10.5512 9.28862C10.589 9.37978 10.6443 9.4626 10.7141 9.53236C10.7839 9.60213 10.8667 9.65747 10.9578 9.69523C11.049 9.73298 11.1467 9.75242 11.2454 9.75242C11.344 9.75242 11.4417 9.73298 11.5329 9.69523C11.624 9.65747 11.7068 9.60213 11.7766 9.53236L13.6566 7.65362C14.3593 6.94923 14.7538 5.99477 14.7535 4.99979C14.7531 4.00481 14.358 3.05063 13.6547 2.34674L13.6579 2.34487ZM8.47161 10.7124L6.59223 12.5924C6.38322 12.8013 6.1351 12.9671 5.86204 13.0802C5.58897 13.1932 5.29631 13.2514 5.00076 13.2514C4.70521 13.2514 4.41256 13.1931 4.13951 13.08C3.86647 12.9669 3.61838 12.8011 3.40942 12.5921C2.98739 12.1699 2.75033 11.5975 2.75039 11.0006C2.75045 10.4037 2.98762 9.83127 3.40973 9.40924L5.28848 7.52987C5.35824 7.4601 5.41359 7.37728 5.45134 7.28613C5.4891 7.19497 5.50853 7.09728 5.50853 6.99862C5.50853 6.89995 5.4891 6.80226 5.45134 6.7111C5.41359 6.61995 5.35824 6.53713 5.28848 6.46737C5.21872 6.3976 5.13589 6.34226 5.04474 6.3045C4.95359 6.26675 4.85589 6.24731 4.75723 6.24731C4.65857 6.24731 4.56087 6.26675 4.46972 6.3045C4.37857 6.34226 4.29574 6.3976 4.22598 6.46737L2.34848 8.34862C2.00019 8.69695 1.72392 9.11047 1.53544 9.56557C1.34696 10.0207 1.24997 10.5084 1.25 11.001C1.25006 11.9958 1.64531 12.9499 2.34879 13.6533C3.05228 14.3567 4.00638 14.7518 5.0012 14.7518C5.99602 14.7517 6.95008 14.3565 7.65348 13.653L9.53223 11.7736C9.67313 11.6327 9.75228 11.4416 9.75228 11.2424C9.75228 11.0431 9.67313 10.852 9.53223 10.7111C9.39133 10.5702 9.20024 10.4911 9.00098 10.4911C8.80172 10.4911 8.61063 10.5702 8.46973 10.7111L8.47161 10.7124Z" fill="white"/>
</svg>
