<svg width="28" height="28" viewBox="0 0 28 28" fill="none" xmlns="http://www.w3.org/2000/svg">
<path d="M10.1818 0H2.54545C1.87036 0 1.22291 0.268181 0.745546 0.745546C0.268181 1.22291 0 1.87036 0 2.54545V10.1818C0 10.8569 0.268181 11.5044 0.745546 11.9817C1.22291 12.4591 1.87036 12.7273 2.54545 12.7273H10.1818C10.8569 12.7273 11.5044 12.4591 11.9817 11.9817C12.4591 11.5044 12.7273 10.8569 12.7273 10.1818V2.54545C12.7273 1.87036 12.4591 1.22291 11.9817 0.745546C11.5044 0.268181 10.8569 0 10.1818 0ZM10.1818 10.1818H2.54545V2.54545H10.1818V10.1818ZM10.1818 15.2727H2.54545C1.87036 15.2727 1.22291 15.5409 0.745546 16.0183C0.268181 16.4956 0 17.1431 0 17.8182V25.4545C0 26.1296 0.268181 26.7771 0.745546 27.2545C1.22291 27.7318 1.87036 28 2.54545 28H10.1818C10.8569 28 11.5044 27.7318 11.9817 27.2545C12.4591 26.7771 12.7273 26.1296 12.7273 25.4545V17.8182C12.7273 17.1431 12.4591 16.4956 11.9817 16.0183C11.5044 15.5409 10.8569 15.2727 10.1818 15.2727ZM10.1818 25.4545H2.54545V17.8182H10.1818V25.4545ZM25.4545 0H17.8182C17.1431 0 16.4956 0.268181 16.0183 0.745546C15.5409 1.22291 15.2727 1.87036 15.2727 2.54545V10.1818C15.2727 10.8569 15.5409 11.5044 16.0183 11.9817C16.4956 12.4591 17.1431 12.7273 17.8182 12.7273H25.4545C26.1296 12.7273 26.7771 12.4591 27.2545 11.9817C27.7318 11.5044 28 10.8569 28 10.1818V2.54545C28 1.87036 27.7318 1.22291 27.2545 0.745546C26.7771 0.268181 26.1296 0 25.4545 0ZM25.4545 10.1818H17.8182V2.54545H25.4545V10.1818ZM15.2727 21.6364V16.5455C15.2727 16.2079 15.4068 15.8842 15.6455 15.6455C15.8842 15.4068 16.2079 15.2727 16.5455 15.2727C16.883 15.2727 17.2067 15.4068 17.4454 15.6455C17.6841 15.8842 17.8182 16.2079 17.8182 16.5455V21.6364C17.8182 21.9739 17.6841 22.2976 17.4454 22.5363C17.2067 22.775 16.883 22.9091 16.5455 22.9091C16.2079 22.9091 15.8842 22.775 15.6455 22.5363C15.4068 22.2976 15.2727 21.9739 15.2727 21.6364ZM28 19.0909C28 19.4285 27.8659 19.7522 27.6272 19.9909C27.3885 20.2295 27.0648 20.3636 26.7273 20.3636H22.9091V26.7273C22.9091 27.0648 22.775 27.3885 22.5363 27.6272C22.2976 27.8659 21.9739 28 21.6364 28H16.5455C16.2079 28 15.8842 27.8659 15.6455 27.6272C15.4068 27.3885 15.2727 27.0648 15.2727 26.7273C15.2727 26.3897 15.4068 26.066 15.6455 25.8273C15.8842 25.5886 16.2079 25.4545 16.5455 25.4545H20.3636V16.5455C20.3636 16.2079 20.4977 15.8842 20.7364 15.6455C20.9751 15.4068 21.2988 15.2727 21.6364 15.2727C21.9739 15.2727 22.2976 15.4068 22.5363 15.6455C22.775 15.8842 22.9091 16.2079 22.9091 16.5455V17.8182H26.7273C27.0648 17.8182 27.3885 17.9523 27.6272 18.191C27.8659 18.4296 28 18.7534 28 19.0909ZM28 24.1818V26.7273C28 27.0648 27.8659 27.3885 27.6272 27.6272C27.3885 27.8659 27.0648 28 26.7273 28C26.3897 28 26.066 27.8659 25.8273 27.6272C25.5886 27.3885 25.4545 27.0648 25.4545 26.7273V24.1818C25.4545 23.8443 25.5886 23.5205 25.8273 23.2819C26.066 23.0432 26.3897 22.9091 26.7273 22.9091C27.0648 22.9091 27.3885 23.0432 27.6272 23.2819C27.8659 23.5205 28 23.8443 28 24.1818Z" fill="white"/>
</svg>
